<svg id="Layer_1" data-name="Layer 1" xmlns="http://www.w3.org/2000/svg" viewBox="0 0 49.44 13.44"><defs><style>.cls-1{fill:#111827;}</style></defs><path class="cls-1" d="M4.3.71a1.12,1.12,0,0,1,.38.46,4.28,4.28,0,0,1,.25.67A4.44,4.44,0,0,1,5,2.41c0,.2,0,.4,0,.59s0,.35,0,.45A11.15,11.15,0,0,1,5,4.74c0,.44-.11.87-.17,1.31s-.12.87-.17,1.31-.07.88-.07,1.31c0,.09,0,.21,0,.36a3.47,3.47,0,0,0,.06.45,1.5,1.5,0,0,0,.15.38.33.33,0,0,0,.29.16c.12,0,.24-.09.35-.28A4,4,0,0,0,5.83,9c.1-.31.21-.64.31-1s.19-.74.27-1.11.14-.71.2-1,.1-.58.13-.77.09-.62.11-.94,0-.65,0-1c0-.12,0-.23,0-.34s0-.2,0-.29,0-.09.14-.11l.27,0,.24,0,.37.08a2.52,2.52,0,0,1,.33.13c.1,0,.15.09.15.14a1.88,1.88,0,0,1-.08.52c-.07.58-.14,1.13-.19,1.65S8,5.93,8,6.45c0,.36,0,.81.07,1.37S8.15,9,8.15,9.56a11.81,11.81,0,0,1-.06,1.21,5.38,5.38,0,0,1-.21,1.06,1.72,1.72,0,0,1-.44.76,1.89,1.89,0,0,1-.55.3,3.32,3.32,0,0,1-.82.11H5.43a4.75,4.75,0,0,1-.59-.09,1.87,1.87,0,0,1-.63-.24,1.55,1.55,0,0,1-.5-.41.87.87,0,0,1-.21-.59.64.64,0,0,1,0-.2.18.18,0,0,1,.16-.12.51.51,0,0,1,.43.18,3.58,3.58,0,0,1,.29.43,2.07,2.07,0,0,0,.37.42,1.08,1.08,0,0,0,.68.19,1,1,0,0,0,.67-.21,1.46,1.46,0,0,0,.38-.57A3.21,3.21,0,0,0,6.71,11c0-.31,0-.62,0-.94s0-.61,0-.91,0-.57,0-.82,0-.21,0-.31,0-.18,0-.26c-.07.27-.16.58-.24.92a5.73,5.73,0,0,1-.34,1,2.4,2.4,0,0,1-.5.75,1,1,0,0,1-.73.31,1.43,1.43,0,0,1-.72-.18A1.74,1.74,0,0,1,3.69,10a2.16,2.16,0,0,1-.3-.69,3,3,0,0,1-.1-.78,13.58,13.58,0,0,1,.07-1.41c.05-.47.1-1,.16-1.44s.11-1,.16-1.46a14.39,14.39,0,0,0,.07-1.48c0-.12,0-.26,0-.42a2.33,2.33,0,0,0-.08-.46,1.2,1.2,0,0,0-.2-.39.47.47,0,0,0-.36-.16.68.68,0,0,0-.43.15,3.58,3.58,0,0,0-.36.3,4.76,4.76,0,0,0-1,1.61,5.24,5.24,0,0,0-.37,2,2.89,2.89,0,0,0,0,.4,1.58,1.58,0,0,0,.1.43,1,1,0,0,0,.23.35.51.51,0,0,0,.37.14.29.29,0,0,0,.22-.08A1.29,1.29,0,0,0,2,6.43l.15-.18a.29.29,0,0,1,.19-.08c.1,0,.19.08.27.22a.8.8,0,0,1,.12.35.46.46,0,0,1-.1.31.51.51,0,0,1-.25.16.81.81,0,0,1-.31.06H1.77a1.27,1.27,0,0,1-.35-.08,2,2,0,0,1-.34-.15,1.53,1.53,0,0,1-.66-.62,1.87,1.87,0,0,1-.2-.88,6.17,6.17,0,0,1,.09-1A9.65,9.65,0,0,1,.59,3.43,8.84,8.84,0,0,1,1,2.32a4.86,4.86,0,0,1,.61-1A2.78,2.78,0,0,1,2.4.69,1.7,1.7,0,0,1,3.3.44,3.31,3.31,0,0,1,4,.54,1.54,1.54,0,0,1,4.3.71Z"/><path class="cls-1" d="M20.46,7.74s-.07-.06-.15-.06-.21.12-.26.35a6.19,6.19,0,0,1-.15.65,2.26,2.26,0,0,1-.2.54,1.42,1.42,0,0,1-.27.38.56.56,0,0,1-.37.13.27.27,0,0,1-.23-.13,1.2,1.2,0,0,1-.14-.34,3.11,3.11,0,0,1-.07-.47,4.61,4.61,0,0,1,0-.52c0-.41,0-.74,0-1a6.12,6.12,0,0,1,.14-.8.85.85,0,0,1,.12-.28A.54.54,0,0,0,19,6a.5.5,0,0,0-.13-.3,1.45,1.45,0,0,0-.29-.26,1.24,1.24,0,0,0-.34-.18A.71.71,0,0,0,18,5.2h-.3c-.11,0-.18,0-.19.06a8.51,8.51,0,0,0-.39.9c-.15.38-.28.75-.41,1.11s-.23.67-.32.93a1.2,1.2,0,0,1-.17.39s0,0,0-.09V6a.24.24,0,0,0-.09-.15.87.87,0,0,0-.18-.11l-.22-.07-.18,0-.26,0a.63.63,0,0,0-.22.07,1.35,1.35,0,0,0-.3.46,6.37,6.37,0,0,0-.27.7c-.08.25-.15.5-.22.76s-.12.48-.16.68V4.87l-.17-.07-.25-.07-.27-.05-.24,0-.14,0a.12.12,0,0,0-.1.14s0,.1,0,.24,0,.26,0,.34c0,.64,0,1.2-.05,1.68,0,.25,0,.49,0,.71h0a1.3,1.3,0,0,0-.07.23q-.06.3-.15.63a2,2,0,0,1-.27.59,1.5,1.5,0,0,1-.44.43,1.31,1.31,0,0,1-.69.17.94.94,0,0,1-.52-.14,1.3,1.3,0,0,1-.34-.32,1.68,1.68,0,0,1-.2-.37,1.13,1.13,0,0,1-.06-.29V8.29l.21.05h.18a1.21,1.21,0,0,0,.73-.24,2,2,0,0,0,.53-.59,3.12,3.12,0,0,0,.34-.77A2.73,2.73,0,0,0,12.2,6V5.78a1.41,1.41,0,0,0-.12-.48,1.23,1.23,0,0,0-.27-.4,1.33,1.33,0,0,0-.41-.29,1.17,1.17,0,0,0-.49-.11,1.28,1.28,0,0,0-.92.36,2.78,2.78,0,0,0-.62.89A4.62,4.62,0,0,0,9,6.89,6.51,6.51,0,0,0,8.88,8,4.57,4.57,0,0,0,9,9a2.18,2.18,0,0,0,.36.82,1.74,1.74,0,0,0,.65.55,2,2,0,0,0,1,.21,1.89,1.89,0,0,0,1-.27,2.39,2.39,0,0,0,.7-.64c.06-.09.12-.17.17-.26a1.84,1.84,0,0,0,0,.26,2.93,2.93,0,0,0,.1.63.24.24,0,0,0,.15.12,1,1,0,0,0,.25.08l.28.05.2,0a2.22,2.22,0,0,0,.37,0,.18.18,0,0,0,.16-.19,7.56,7.56,0,0,1,.08-1c0-.37.1-.72.16-1a7,7,0,0,1,.21-.85c.07-.24.13-.36.18-.38a.17.17,0,0,1,.05.14,1.93,1.93,0,0,1,0,.24V8.56c0,.3,0,.55,0,.77a1.38,1.38,0,0,0,.11.51.63.63,0,0,0,.29.29,1.36,1.36,0,0,0,.51.08.81.81,0,0,0,.33-.06c.09,0,.13-.08.13-.13a2.32,2.32,0,0,1,.06-.45c0-.18.08-.37.14-.56l.14-.51a2.81,2.81,0,0,0,.08-.31l.26-.68c.12-.29.25-.57.38-.83l-.09,1.19V8a7.63,7.63,0,0,0,.07,1,3.17,3.17,0,0,0,.22.82,1.35,1.35,0,0,0,.45.57,1.19,1.19,0,0,0,.73.21.91.91,0,0,0,.67-.3,2.74,2.74,0,0,0,.49-.7,4.34,4.34,0,0,0,.3-.8,2.75,2.75,0,0,0,.12-.59.77.77,0,0,0,0-.42ZM10.2,7.41A3.1,3.1,0,0,1,10.26,7a4.57,4.57,0,0,1,.18-.68,2.92,2.92,0,0,1,.31-.64.55.55,0,0,1,.45-.27.23.23,0,0,1,.24.13.5.5,0,0,1,.07.25v.08a3,3,0,0,1-.06.53,3.38,3.38,0,0,1-.18.62,1.69,1.69,0,0,1-.33.53.65.65,0,0,1-.49.21h-.08c-.08,0-.13,0-.15-.08a1.06,1.06,0,0,1,0-.21Z"/><path class="cls-1" d="M27.75,4a4.51,4.51,0,0,1-.27,1.55,4.63,4.63,0,0,1-.73,1.33,3.76,3.76,0,0,1-1.09.94,2.55,2.55,0,0,1-1.31.35A.76.76,0,0,1,24,8.07l-.36-.21-.07,0c0,.23-.05.51-.07.85s0,.7,0,1.11V10c0,.05,0,.09,0,.13a.49.49,0,0,1,0,.12v.16a.66.66,0,0,0,.08.32.84.84,0,0,1,.08.19q0,.12-.18.15l-.21,0a1.18,1.18,0,0,1-.59-.12.74.74,0,0,1-.32-.49,6.17,6.17,0,0,1-.12-1.1c0-.48,0-1.11,0-1.91s0-1.31,0-1.93.07-1.18.11-1.69.09-.95.13-1.32.08-.65.11-.84a4,4,0,0,0-.46.12l-.6.23c-.21.09-.43.19-.65.31a3.93,3.93,0,0,0-.61.36,2.33,2.33,0,0,0-.43.38.61.61,0,0,0-.17.39l.25.81a2.08,2.08,0,0,1,0,.3.23.23,0,0,1-.25.18,1.09,1.09,0,0,1-.5-.11,1.06,1.06,0,0,1-.35-.27A1.47,1.47,0,0,1,18.57,4a1,1,0,0,1-.08-.35,1.32,1.32,0,0,1,.32-.84,3.33,3.33,0,0,1,.81-.71,6.4,6.4,0,0,1,1.14-.58A11.28,11.28,0,0,1,23.31.79a7.18,7.18,0,0,1,1-.09,8.55,8.55,0,0,1,1,.06,3.44,3.44,0,0,1,1,.31,2,2,0,0,1,.81.73,3.44,3.44,0,0,1,.41.93,4.28,4.28,0,0,1,.16.83C27.74,3.8,27.75,4,27.75,4Zm-1-.62a1.66,1.66,0,0,0-.31-1.07,2,2,0,0,0-.77-.57,3.2,3.2,0,0,0-1-.23l-.91,0a2,2,0,0,0-.3,0c-.14,0-.32,0-.54.08a1.44,1.44,0,0,1,.68.32.51.51,0,0,1,.19.36l-.16,4.11a2.82,2.82,0,0,0,.08.76c.06.16.23.25.5.25a1.27,1.27,0,0,0,.83-.43,5.24,5.24,0,0,0,.82-1.05,7.45,7.45,0,0,0,.61-1.31A3.53,3.53,0,0,0,26.73,3.37Z"/><path class="cls-1" d="M48.12,8.12c-.27-.21-.53-.43-.75-.64A.85.85,0,0,1,47,6.87a1.07,1.07,0,0,1,.2-.63.8.8,0,0,1,.71-.3.35.35,0,0,1,.18,0,1.67,1.67,0,0,1,.16.12l.13.11a.15.15,0,0,0,.11.06.49.49,0,0,0,.34-.13,1.21,1.21,0,0,0,.21-.28,1.42,1.42,0,0,0,.11-.33,1,1,0,0,0,0-.25A.37.37,0,0,0,49,4.9a1.24,1.24,0,0,0-.49-.11,4.06,4.06,0,0,0-.73.09,4.11,4.11,0,0,0-.9.29,2.56,2.56,0,0,0-.78.55,1.38,1.38,0,0,0-.23.36l0,0a1.38,1.38,0,0,0-.11.24c0,.1-.08.21-.13.33a2.42,2.42,0,0,1-.21.37,1.72,1.72,0,0,1-.35.37c0-.17,0-.33,0-.48s0-.3,0-.44-.06-.48-.11-.71a1.1,1.1,0,0,0-.22-.52l-.4-.44a4,4,0,0,0-.43-.4,2.16,2.16,0,0,0-.45-.29A1,1,0,0,0,42.89,4a1.46,1.46,0,0,0-.43.08,1.14,1.14,0,0,0-.42.29,3.25,3.25,0,0,0-.39.61,4.75,4.75,0,0,0-.36.88,8.17,8.17,0,0,0-.27,1,4.27,4.27,0,0,0-.1.79h0a.57.57,0,0,0,0,.14c-.05.25-.11.48-.17.72a4,4,0,0,1-.24.62,1.35,1.35,0,0,1-.29.44.49.49,0,0,1-.34.16.29.29,0,0,1-.23-.13,1.27,1.27,0,0,1-.15-.35,2.81,2.81,0,0,1-.09-.47,4.63,4.63,0,0,1,0-.54c0-.48,0-.94,0-1.38s0-.83,0-1.17,0-.61,0-.82a1.93,1.93,0,0,1,0-.34s.11-.08.27-.1l.53-.06.55,0h.32c.15,0,.24,0,.27,0s.06,0,.08,0,0,0,.07-.06a.22.22,0,0,0,0-.1A.31.31,0,0,0,41.44,4a1.18,1.18,0,0,0-.39-.14,2.78,2.78,0,0,0-.51,0H40a2,2,0,0,1-.39,0c-.1,0-.15-.07-.15-.12l.16-1.89c0-.06,0-.11-.16-.16a2.34,2.34,0,0,0-.35-.13l-.39-.08-.27,0s-.07,0-.09.17a3.88,3.88,0,0,0,0,.44c0,.18,0,.37,0,.58s0,.39,0,.57a2.59,2.59,0,0,1,0,.44c0,.12,0,.18-.08.18q-.73,0-1.11,0c-.26,0-.38.09-.38.21a.34.34,0,0,0,.23.32,2,2,0,0,0,.52.13l.53.09c.15,0,.23.08.23.16,0,.44,0,.91-.06,1.42v.2s0,0,0,0L38,6.68c-.06.11-.13.24-.21.37a2,2,0,0,1-.35.37c0-.17,0-.33,0-.48s0-.3,0-.44-.07-.48-.12-.71a1.21,1.21,0,0,0-.21-.52l-.4-.44a5.23,5.23,0,0,0-.43-.4,2.85,2.85,0,0,0-.45-.29A1,1,0,0,0,35.3,4a1.46,1.46,0,0,0-.42.08,1.14,1.14,0,0,0-.42.29,2.48,2.48,0,0,0-.39.61,5.55,5.55,0,0,0-.37.88,10.33,10.33,0,0,0-.26,1A4.83,4.83,0,0,0,33.33,8a4.64,4.64,0,0,0,0,.63s0,.07,0,.1-.07.19-.11.28a1.42,1.42,0,0,1-.32.43.65.65,0,0,1-.48.18q-.28,0-.39-.42a4.26,4.26,0,0,1-.1-1c0-.29,0-.58,0-.87s.06-.57.1-.82.07-.45.1-.62a2.39,2.39,0,0,1,.07-.29.25.25,0,0,0,0-.13.24.24,0,0,0-.09-.08l-.11-.12A.64.64,0,0,1,31.93,5a.47.47,0,0,0-.35-.22,1.83,1.83,0,0,0-.45-.07c-.09,0-.2.09-.3.26a3.48,3.48,0,0,0-.31.64,7.28,7.28,0,0,0-.29.83q-.15.45-.24.84c-.07.27-.13.48-.17.66s-.07.26-.07.27c0-.68,0-1.22,0-1.59s0-.66,0-.84,0-.29,0-.34v-.1c0-.24,0-.56,0-1s0-.87.08-1.33.08-.9.13-1.33.09-.78.14-1A2,2,0,0,0,29.4.48h-.22a1.24,1.24,0,0,0-.27,0l-.23,0c-.07,0-.1.06-.1.1a.25.25,0,0,0,.05.17.58.58,0,0,1,.05.28V9.47a1.19,1.19,0,0,1-.05.41.3.3,0,0,0-.05.13.25.25,0,0,0,.08.21.62.62,0,0,0,.19.12l.24.06.2,0a1.46,1.46,0,0,0,.38-.05L30,10.3a8.51,8.51,0,0,1,.1-1.08c.06-.39.13-.76.22-1.13s.2-.71.32-1a5.82,5.82,0,0,1,.34-.8c0,.09,0,.21,0,.34v.32c0,.51,0,1,0,1.4a5.26,5.26,0,0,0,.18,1.1,1.68,1.68,0,0,0,.41.72,1,1,0,0,0,.72.26,1.22,1.22,0,0,0,.79-.27,2.73,2.73,0,0,0,.54-.63v0a2.9,2.9,0,0,0,.25.36,2.44,2.44,0,0,0,.6.48l.28.14a2.55,2.55,0,0,0,.33.11,2.37,2.37,0,0,0,.34.08l.3,0a1.12,1.12,0,0,0,.69-.22,2.06,2.06,0,0,0,.51-.55,2.61,2.61,0,0,0,.32-.65,2.72,2.72,0,0,0,.15-.55s0-.09,0-.15,0-.18,0-.34L37.74,8A2.37,2.37,0,0,0,38,7.66l.12-.16v.26a6.29,6.29,0,0,0,.1,1.17,3.71,3.71,0,0,0,.3.94,1.75,1.75,0,0,0,.48.63,1.09,1.09,0,0,0,.68.22,1,1,0,0,0,.72-.33,3.29,3.29,0,0,0,.51-.78,4.32,4.32,0,0,0,.19-.45l0,.07a1.91,1.91,0,0,0,.36.59,2.21,2.21,0,0,0,.59.48l.28.14.33.11a2.37,2.37,0,0,0,.34.08l.3,0a1.12,1.12,0,0,0,.69-.22,2.06,2.06,0,0,0,.51-.55,3.06,3.06,0,0,0,.33-.65A3.41,3.41,0,0,0,45,8.69a.61.61,0,0,0,0-.15c0-.06,0-.18,0-.34L45.32,8a1.74,1.74,0,0,0,.25-.29,3.48,3.48,0,0,0,.31-.47.21.21,0,0,0,0,.06,2.49,2.49,0,0,0,.42.56,4.92,4.92,0,0,0,.54.47l.55.42a5.63,5.63,0,0,1,.42.39.6.6,0,0,1,.16.4.28.28,0,0,1-.19.28,1,1,0,0,1-.32.08A.9.9,0,0,1,47,9.73a2.62,2.62,0,0,1-.37-.24l-.32-.25A.48.48,0,0,0,46,9.12a.55.55,0,0,0-.24.07.24.24,0,0,0-.13.22.57.57,0,0,0,.2.44,1.4,1.4,0,0,0,.48.27,3.77,3.77,0,0,0,.58.14,3.41,3.41,0,0,0,.5,0l.43,0a3.16,3.16,0,0,0,.6-.11A1.5,1.5,0,0,0,49,9.89a.65.65,0,0,0,.23-.53.89.89,0,0,0-.34-.61C48.65,8.54,48.4,8.33,48.12,8.12Zm-11.66.81a1.23,1.23,0,0,1-.21.41,1,1,0,0,1-.36.31,1.13,1.13,0,0,1-.54.13,1,1,0,0,1-.44-.1.64.64,0,0,1-.27-.24,1,1,0,0,1-.14-.32,1.24,1.24,0,0,1,0-.33V8.48a1.57,1.57,0,0,0,.46.24,3,3,0,0,0,.6,0,3.62,3.62,0,0,0,.51,0,1.2,1.2,0,0,0,.48-.18A1.43,1.43,0,0,1,36.46,8.93Zm.14-1.3s-.09.11-.27.2a1.55,1.55,0,0,1-.69.13,1,1,0,0,1-.8-.27,1.25,1.25,0,0,1-.23-.85,2.71,2.71,0,0,1,.09-.68A3,3,0,0,1,35,5.53a1.86,1.86,0,0,1,.37-.45.64.64,0,0,1,.42-.17.44.44,0,0,1,.36.17,1.27,1.27,0,0,1,.24.41,4,4,0,0,1,.15.55c0,.19.06.39.07.57s0,.34,0,.48,0,.22,0,.26ZM44,8.93a1.2,1.2,0,0,1-.2.41,1,1,0,0,1-.37.31,1.13,1.13,0,0,1-.54.13,1,1,0,0,1-.44-.1.78.78,0,0,1-.27-.24,1,1,0,0,1-.13-.32A1.26,1.26,0,0,1,42,8.79l0-.31a1.36,1.36,0,0,0,.46.24,3,3,0,0,0,.6,0,3.92,3.92,0,0,0,.51,0,1.34,1.34,0,0,0,.48-.18A1.15,1.15,0,0,1,44,8.93Zm.14-1.3s-.09.11-.27.2a1.55,1.55,0,0,1-.69.13,1,1,0,0,1-.8-.27,1.31,1.31,0,0,1-.23-.85,2.71,2.71,0,0,1,.09-.68,3,3,0,0,1,.26-.63,1.83,1.83,0,0,1,.36-.45.69.69,0,0,1,.42-.17.45.45,0,0,1,.37.17,1.46,1.46,0,0,1,.23.41,2.34,2.34,0,0,1,.15.55c0,.19.06.39.07.57a4.4,4.4,0,0,1,0,.48c0,.13,0,.22,0,.26Z"/></svg>